<?xml version="1.0" encoding="UTF-8"?><svg id="Layer_2" xmlns="http://www.w3.org/2000/svg" viewBox="0 0 42 42"><g id="Layer_1-2"><path d="M21,0C9.4,0,0,9.4,0,21H0c0,11.6,9.4,21,21,21h0c11.6,0,21-9.4,21-21h0C42,9.4,32.6,0,21,0h0ZM8,14h6.7c.7,0,4.7,0,4.7,3.6,0,1.9-1.3,2.6-1.9,2.9,.9,.3,2.5,1.1,2.5,3.6,0,3.8-4.4,4-5,4h-7V14Zm17,0h7v2h-7v-2Zm-14,2.4v3.3h3.2c.4,0,1.9-.2,1.9-1.7s-1.9-1.6-2.2-1.6c0,0-2.9,0-2.9,0Zm17.7,.6c3.9,0,5,3,5.1,3.8,.2,.7,.2,1.3,.2,2.2h-7.9c0,.9,.5,2.8,2.8,2.8,.6,0,1.1-.1,1.5-.4,.5-.3,.6-.6,.8-.9h2.6c-.5,1.1-1.1,2-2,2.6s-2,.9-3.2,.9c-.8,0-1.6-.1-2.3-.4-.6-.3-1.2-.7-1.7-1.2-.5-.4-.8-1-1.1-1.7-.3-.6-.5-1.4-.5-2.2s.3-5.5,5.7-5.5Zm0,2c-2.3,0-2.6,2.2-2.6,2.3h5c-.2-.7-.8-2.3-2.4-2.3Zm-17.7,2.7v3.9h3.4c.3,0,2.3-.1,2.3-1.9s-1.6-2-2.3-2h-3.4Z"/></g></svg>