<?xml version="1.0" encoding="UTF-8"?><svg id="Layer_2" xmlns="http://www.w3.org/2000/svg" viewBox="0 0 42 42"><g id="Layer_1-2"><path d="M18.66,.15C8.99,1.22,1.21,9.16,.16,18.82c-1.26,10.73,5.26,19.96,14.51,22.96v-4.94s-.84,.21-1.89,.21c-2.94,0-4.21-2.58-4.42-4.08-.21-.86-.63-1.5-1.26-2.15-.63-.21-.84-.21-.84-.43,0-.43,.63-.43,.84-.43,1.26,0,2.31,1.5,2.73,2.15,1.05,1.72,2.31,2.15,2.94,2.15,.84,0,1.47-.21,1.89-.43,.21-1.5,.84-3,2.1-3.86-4.84-1.07-8.41-3.86-8.41-8.58,0-2.36,1.05-4.72,2.52-6.44-.21-.43-.42-1.5-.42-3,0-.86,0-2.15,.63-3.43,0,0,2.94,0,5.89,2.79,1.05-.43,2.52-.64,4-.64s2.94,.21,4.21,.64c2.73-2.79,5.89-2.79,5.89-2.79,.42,1.29,.42,2.58,.42,3.43,0,1.72-.21,2.58-.42,3,1.47,1.72,2.52,3.86,2.52,6.44,0,4.72-3.57,7.51-8.41,8.58,1.26,1.07,2.1,3,2.1,4.94v7.08c8.62-2.79,14.72-10.95,14.72-20.39C42,8.73,31.28-1.35,18.66,.15Z"/></g></svg>