<?xml version="1.0" encoding="UTF-8"?><svg id="Layer_2" xmlns="http://www.w3.org/2000/svg" viewBox="0 0 42 42"><g id="Layer_1-2"><g><circle cx="29.25" cy="12.75" r="1.18"/><path d="M21,13.93c-3.89,0-7.07,3.18-7.07,7.07s3.18,7.07,7.07,7.07,7.07-3.18,7.07-7.07-3.18-7.07-7.07-7.07Zm0,11.79c-2.59,0-4.72-2.12-4.72-4.72s2.12-4.72,4.72-4.72,4.72,2.12,4.72,4.72-2.12,4.72-4.72,4.72Z"/><path d="M21,0C9.4,0,0,9.4,0,21s9.4,21,21,21,21-9.4,21-21S32.6,0,21,0Zm14.15,26.89c0,4.6-3.65,8.25-8.25,8.25H15.11c-4.6,0-8.25-3.65-8.25-8.25V15.11c0-4.6,3.65-8.25,8.25-8.25h11.79c4.6,0,8.25,3.65,8.25,8.25v11.79Z"/></g></g></svg>