<?xml version="1.0" encoding="utf-8"?>
<!-- Generator: Adobe Illustrator 26.2.1, SVG Export Plug-In . SVG Version: 6.00 Build 0)  -->
<svg version="1.1" id="Layer_1" xmlns="http://www.w3.org/2000/svg" xmlns:xlink="http://www.w3.org/1999/xlink" x="0px" y="0px"
	 viewBox="0 0 383.4 377" style="enable-background:new 0 0 383.4 377;" xml:space="preserve">
<style type="text/css">
	.st0{fill:#00005B;}
	.st1{fill:#9898FE;}
</style>
<g>
	<path class="st0" d="M0,315.7c0-85.1,0-170.1,0-255.2C0.8,52,2.8,43.9,7.1,36.4C19,15.7,36.6,3.9,60.3,0.8C67,0,73.7,0,80.4,0
		c76.9,0,153.9,0,230.8,0c20.7,0,39,6.3,53.7,21.4c8.3,8.5,13.9,18.5,17,29.9c1.3,4.8,1.4,9.9,1.4,14.8
		c0.1,81.6-0.1,163.1,0.1,244.7c0.1,28.7-20.4,52.5-43.3,61.2c-9.1,3.5-18.6,4.9-28.2,4.9c-80.3,0.1-160.6,0.1-240.9,0
		c-20.7,0-39.1-6.5-53.5-21.9c-10-10.7-17-23.1-17.3-38.3C0.4,316.3,0.2,316,0,315.7z"/>
	<path class="st1" d="M123.8,97.7c6.2,0,12.5,0.1,18.7,0c2.3,0,3.5,0.6,4.4,2.9c19,53.5,38.1,106.9,57.1,160.3
		c1.3,3.6,0.9,4.1-3,4.1c-9.7,0-19.5-0.1-29.2,0.1c-3.1,0.1-4.7-0.9-5.7-4c-3.6-11.1-7.6-22.1-11.3-33.2c-0.7-2.1-1.7-2.8-3.9-2.8
		c-17.8,0.1-35.7,0.1-53.5,0c-2.3,0-3.2,0.7-3.9,2.8c-3.4,11-7.1,22-10.5,33.1c-0.9,3.1-2.5,4.1-5.6,4.1c-8.6-0.2-17.2,0-25.8-0.1
		c-4.8,0-5-0.3-3.4-5c16.7-47.8,33.3-95.6,50-143.4c1.7-5,3.1-10,3.1-15.3c0-3.1,1.3-3.7,4.1-3.7C111.5,97.8,117.7,97.7,123.8,97.7z
		"/>
	<path class="st1" d="M286.6,210.6c-12.6,0-23.3,0-34,0c-4.4,0-4.4,0-3.3,4.4c3.3,13.3,13.2,21.3,28.5,22.9
		c12.5,1.3,24.6-0.6,36.4-4.4c2.7-0.9,3.4-0.4,3.3,2.4c-0.1,7.2-0.1,14.5,0,21.7c0,2.2-0.5,3.8-2.9,4.6c-22.1,7.5-44.5,9.4-66.6,0.8
		c-17.7-6.9-28.3-20.7-32.9-39c-5.7-22.7-3.1-44.3,10.3-64c10.5-15.4,25.6-22.8,44-23.9c8.8-0.5,17.4,0.3,25.8,3.2
		c19.2,6.8,32.3,25.5,33.2,47.6c0.3,6.6,0,13.2-0.7,19.8c-0.3,2.5-1.4,3.2-3.8,3.5C310.9,211.9,297.8,210,286.6,210.6z"/>
	<path class="st0" d="M123.9,126.5c2.7,8.8,5.1,16.5,7.4,24.2c4,13.2,8,26.4,12.1,39.6c0.8,2.4,0.7,3.4-2.3,3.4
		c-11.4-0.2-22.9-0.1-34.4-0.1c-1.7,0-3.2,0.3-2.3-2.5C110.9,169.9,117.3,148.8,123.9,126.5z"/>
	<path class="st0" d="M270.7,187.1c-6.4,0-12.7-0.2-19.1,0.1c-3,0.1-3.1-1-2.6-3.4c3.4-15.2,16.3-23.4,30.7-19.2
		c7.9,2.3,14,9.4,14.9,17.4c0.5,4-0.2,4.9-4.3,5C283.9,187.1,277.3,187,270.7,187.1C270.7,187,270.7,187.1,270.7,187.1z"/>
</g>
</svg>
