<?xml version="1.0" encoding="utf-8"?>
<!-- Generator: Adobe Illustrator 26.2.1, SVG Export Plug-In . SVG Version: 6.00 Build 0)  -->
<svg version="1.1" id="Layer_1" xmlns="http://www.w3.org/2000/svg" xmlns:xlink="http://www.w3.org/1999/xlink" x="0px" y="0px"
	 viewBox="0 0 359.2 347.2" style="enable-background:new 0 0 359.2 347.2;" xml:space="preserve">
<style type="text/css">
	.st0{fill:#330000;}
	.st1{fill:#FE9900;}
</style>
<g>
	<path class="st0" d="M179.8,0c38.7,0,77.3,0,116,0c31.1,0,56.3,20.8,62.4,51.3c0.8,4,1.1,8.1,1.1,12.3c0,73.3,0,146.6,0,220
		c0,36.1-27.6,63.6-63.8,63.6c-77.2,0-154.4,0-231.6,0c-36.3,0-63.8-27.6-63.8-64C0,210.1,0,137.1,0,64c0-36.6,27.5-64,64.2-64
		C102.7,0,141.2,0,179.8,0z"/>
	<path class="st1" d="M153.7,95.8c5.1,0,10.2,0.2,15.3-0.1c2.8-0.1,3.9,1,4.7,3.5c14.1,41.3,28.3,82.6,42.5,124
		c3.5,10.1,6.9,20.3,10.5,30.3c1,2.9,0.6,4-2.8,4c-8.1-0.2-16.2-0.2-24.3,0c-2.9,0.1-4.2-1-5.1-3.7c-4.2-11.9-8.5-23.7-12.7-35.5
		c-0.7-2-1.6-2.9-3.9-2.8c-16,0.1-31.9,0.1-47.9,0c-2.4,0-3.2,0.9-3.8,3c-4,11.8-8.2,23.5-12.1,35.3c-1,2.9-2.4,3.8-5.4,3.7
		c-6.9-0.2-13.7-0.1-20.6-0.1c-4.6,0-4.8-0.3-3.4-4.7c11.6-34.3,23.1-68.6,34.7-103c4.1-12,8.1-24.1,12.2-36.1
		c1.7-4.9,2.8-9.8,2.9-15c0-2.3,0.8-3,3.1-3C143,95.9,148.3,95.8,153.7,95.8z"/>
	<path class="st1" d="M242.5,197.4c0-18.4,0.1-36.9-0.1-55.3c0-3.5,1-4.5,4.5-4.4c7.3,0.2,14.7,0.1,22,0c2.5,0,3.5,0.8,3.5,3.4
		c-0.1,37.6-0.1,75.2,0,112.9c0,2.6-0.8,3.5-3.5,3.5c-7.6-0.1-15.2-0.2-22.8,0c-3.1,0.1-3.8-1.3-3.8-4
		C242.5,234.7,242.5,216,242.5,197.4z"/>
	<path class="st1" d="M275.4,108c0,10.8-7.2,17.8-18.2,17.7c-10.6,0-17.7-7.2-17.7-17.9c0-10.8,7.5-18.1,18.5-18
		C268.4,89.9,275.4,97.1,275.4,108z"/>
	<path class="st0" d="M174.8,188.6c-13.4,0-26.5,0-39.6,0c-3.2,0-1.4-2-1.1-3c4-13.7,8.2-27.4,12.3-41.1c2.3-7.7,4.6-15.4,7.2-23.9
		C160.8,143.7,167.7,166,174.8,188.6z"/>
</g>
</svg>
