<?xml version="1.0" encoding="utf-8"?>
<!-- Generator: Adobe Illustrator 26.2.1, SVG Export Plug-In . SVG Version: 6.00 Build 0)  -->
<svg version="1.1" id="Layer_1" xmlns="http://www.w3.org/2000/svg" xmlns:xlink="http://www.w3.org/1999/xlink" x="0px" y="0px"
	 viewBox="0 0 383.4 377.1" style="enable-background:new 0 0 383.4 377.1;" xml:space="preserve">
<style type="text/css">
	.st0{fill:#9080F2;}
	.st1{fill:#F2F2F2;}
</style>
<g>
	<path class="st0" d="M0,316.5c0-85.3,0-170.6,0-255.9c0.7-8.9,2.9-17.3,7.5-25.1c12.1-20.5,30-32,53.7-34.8C69.1-0.2,76.9,0,84.8,0
		c75.7,0,151.4-0.1,227,0c17.5,0,33.5,4.6,47.2,15.8c11.6,9.4,19.2,21.5,23.1,35.9c1.3,4.8,1.3,9.9,1.3,14.8
		c0,81.3-0.3,162.6,0.2,243.9c0.2,35.5-30.5,63.9-62.5,66c-8.2,0.5-16.4,0.6-24.6,0.6c-74.8,0-149.6,0-224.4,0
		c-17.6,0-33.8-4.4-47.7-15.6c-10.9-8.8-18.3-20-22.6-33.2C0.5,324.5,1.1,320.4,0,316.5z"/>
	<path class="st1" d="M282.3,169.2c0,20.5,0,40.9,0,61.4c0,7.9,0.4,15.7,1,23.5c0.2,2.2-0.2,3.9-2.5,4.8c-24.1,9-48.6,13.1-73.9,6
		c-24.4-6.8-40.1-26.5-42.4-51.7c-1.7-18.4,1.4-35.3,12.6-50.2c12.1-16,28.6-24.3,48.3-26.8c6.1-0.8,12.2-1.1,18.3-0.5
		c2.8,0.3,3.3-0.7,3.3-3.2c-0.1-14.8,0-29.7-0.1-44.5c0-3.3,0.9-4.3,4.2-4.2c9,0.2,18,0.2,26.9,0c3.4-0.1,4.5,0.8,4.4,4.3
		C282.2,115.1,282.3,142.1,282.3,169.2z"/>
	<path class="st1" d="M139.2,181.5c0,26.4,0,52.9,0,79.3c0,4.9,0,5-5,5c-8.9,0-17.7-0.1-26.6,0.1c-2.9,0.1-4.2-1-4.1-3.8
		c0-0.9,0-1.7,0-2.6c0-51.9,0-103.8,0-155.6c0-6.4,0-6.4,6.4-6.4c7.9,0,15.7,0,23.6,0c5.7,0,5.7,0,5.7,5.5
		C139.2,129.1,139.2,155.3,139.2,181.5z"/>
	<path class="st0" d="M246.8,201.3c0,10.7,0,21.4,0,32.1c0,2.2-0.5,3.7-2.9,3.7c-6.2,0.1-12.4,0.7-18.6-0.5
		c-11.7-2.4-19.5-9.2-22.8-20.7c-3.7-12.9-4.1-25.8,4.7-37c9.4-11.9,22.3-15.1,36.8-13.3c2.2,0.3,2.8,1.4,2.8,3.5
		C246.8,179.8,246.8,190.6,246.8,201.3z"/>
</g>
</svg>
