<?xml version="1.0" encoding="utf-8"?>
<!-- Generator: Adobe Illustrator 26.2.1, SVG Export Plug-In . SVG Version: 6.00 Build 0)  -->
<svg version="1.1" id="Layer_1" xmlns="http://www.w3.org/2000/svg" xmlns:xlink="http://www.w3.org/1999/xlink" x="0px" y="0px"
	 viewBox="0 0 383.5 376.9" style="enable-background:new 0 0 383.5 376.9;" xml:space="preserve">
<style type="text/css">
	.st0{fill:#9080F2;}
	.st1{fill:#F2F2F2;}
</style>
<g>
	<path class="st0" d="M0,316.4c0-85.3,0-170.6,0-255.9c0.8-8.2,2.7-16.1,6.8-23.4C18.8,15.5,37,3.6,61.4,0.7C67.5-0.1,73.6,0,79.7,0
		C157,0,234.3,0,311.6,0c16.1,0,31.1,3.9,44.3,13.5c13.3,9.7,21.9,22.7,26.2,38.5c1.2,4.6,1.3,9.4,1.3,14.1
		c0.1,81.6-0.1,163.1,0.1,244.7c0.1,28.6-20.3,52.5-43.3,61.2c-9.1,3.5-18.6,4.9-28.2,4.9c-80.3,0.1-160.6,0.1-240.9,0
		c-23.5,0-43.4-8.3-58.1-27.3c-7.1-9.2-12.1-19.4-12.6-31.4C0.4,317.6,0.4,316.9,0,316.4z"/>
	<path class="st1" d="M86.1,181.4c0-26.3,0.1-52.6-0.1-78.9c0-3.7,0.9-4.9,4.8-4.9c15.2-0.1,30.4-0.8,45.6-0.9
		c13.5-0.1,26.9,1.3,39.4,7.3c21,10,30.7,27.2,31,50c0.4,33.3-21.3,52.5-49.7,57c-10.9,1.7-21.9,1.7-32.8,1.3
		c-2.8-0.1-3.6,0.8-3.5,3.5c0.1,15.1,0,30.2,0.1,45.3c0,3.6-1,4.8-4.7,4.7c-8.5-0.2-17-0.2-25.4,0c-3.6,0.1-4.7-1-4.7-4.6
		C86.2,234.5,86.1,208,86.1,181.4z"/>
	<path class="st1" d="M223.9,245.1c0-4.1,0.1-8.2,0-12.3c-0.1-3.2,1.1-3.6,3.8-2.1c12.2,6.7,25.3,9.5,39.1,9.4c3,0,5.9-0.5,8.8-1.3
		c3.2-0.9,5.7-2.7,6.4-6.1c0.8-3.6-1.2-6-3.8-7.9c-3.7-2.8-8-4.5-12.3-6.1c-8.4-3.2-16.5-6.8-24.2-11.7c-26.1-16.5-21.2-51.6,3-64.1
		c11.3-5.8,23.3-6.9,35.6-6.3c8.8,0.4,17.6,1.2,26.1,4.2c2.7,0.9,3.8,2.5,3.8,5.2c0,7.9,0.1,15.7,0,23.6c0,3.2-1.4,4.1-4.4,2.6
		c-9.8-4.8-20.3-6.5-31.1-7.1c-3.6-0.2-7.2,0.2-10.7,1.1c-3.3,0.8-5.6,2.7-6.4,6.1c-0.7,3.4,1.1,5.8,3.6,7.7c5,3.8,10.9,6,16.7,8.2
		c7,2.7,13.7,5.8,20.2,9.6c13,7.5,19.4,18.5,18.4,33.7c-1,14.5-8.2,24.8-20.9,31.4c-11.8,6.1-24.5,7.1-37.5,6.4
		c-10.3-0.6-20.5-2.1-30.3-6.1c-3-1.2-4.3-3-4.1-6.2C224,252.8,223.9,249,223.9,245.1z"/>
	<path class="st0" d="M121.1,155.2c0-8,0-15.9,0-23.9c0-1.6,0.1-2.9,2.3-2.9c9.2,0,18.4-1,27.5,1c17.1,3.6,25.9,19.6,19.6,36
		c-2.1,5.5-6.2,9.2-11.3,11.9c-6.8,3.7-14.3,4.9-22,5.1c-4.4,0.1-8.7-0.1-13.1,0c-2.4,0-3.2-0.8-3.2-3.3
		C121.2,171.1,121.1,163.1,121.1,155.2z"/>
</g>
</svg>
