<?xml version="1.0" encoding="utf-8"?>
<!-- Generator: Adobe Illustrator 26.2.1, SVG Export Plug-In . SVG Version: 6.00 Build 0)  -->
<svg version="1.1" id="Layer_1" xmlns="http://www.w3.org/2000/svg" xmlns:xlink="http://www.w3.org/1999/xlink" x="0px" y="0px"
	 viewBox="0 0 383.4 377.2" style="enable-background:new 0 0 383.4 377.2;" xml:space="preserve">
<style type="text/css">
	.st0{fill:#9080F2;}
	.st1{fill:#F2F2F2;}
</style>
<g>
	<path class="st0" d="M0,315.8c0-85.1,0-170.1,0-255.2c0.9-8.3,2.5-16.4,6.7-23.8C18.9,15.6,36.8,3.5,61.1,0.7C68.1-0.1,75.1,0,82,0
		c76.7,0,153.4,0,230.1,0c20.5,0,38.5,6.4,52.9,21.3c11.9,12.3,18.5,26.9,18.5,44.3c-0.1,81.9-0.2,163.9,0,245.8
		c0.1,33-27.2,59.6-55.8,64.2c-6.4,1-12.8,1.5-19.3,1.5c-78.9,0-157.9,0-236.8,0c-20.7,0-39.1-6.2-53.6-21.5
		C7.7,344.9,0.5,332.4,0.4,316.9C0.4,316.4,0.2,316.1,0,315.8z"/>
	<path class="st1" d="M326.2,165.5c0,21.8,0.1,43.6,0,65.4c0,7.7,0.5,15.4,0.9,23.2c0.1,2,0,3.8-2.2,4.6c-22.8,8.7-46.2,13-70.2,7.2
		c-29.4-7.1-45.7-28.1-46.6-58.8c-1.2-38.7,25-67.9,63.7-71c5.4-0.4,10.7-1,16-0.2c2.8,0.4,3.1-0.7,3.1-3
		c-0.1-14.8,0.1-29.7-0.1-44.5c-0.1-3.8,0.9-4.9,4.8-4.8c8.8,0.3,17.7,0.2,26.5,0c3.2-0.1,4.3,0.8,4.2,4.1
		C326.2,113.7,326.2,139.6,326.2,165.5z"/>
	<path class="st1" d="M131.4,160.7c10-20.6,21-39.8,31.1-59.6c1.4-2.7,3-3.8,6.1-3.7c9.7,0.2,19.4,0,29.2,0.1c1.3,0,2.9-0.6,3.8,0.7
		c1,1.5-0.6,2.5-1.2,3.6c-14.9,24.6-29.7,49.2-44.7,73.8c-1.5,2.5-1.6,4.1,0,6.7c15.9,25.8,31.6,51.6,47.3,77.5
		c0.5,0.9,1,1.7,1.5,2.6c1,1.8,0.8,2.7-1.5,2.7c-12.6,0-25.2-0.1-37.8,0c-2.8,0-3.9-1.7-4.9-3.8c-9.4-18.8-19.6-37.2-29.8-55.6
		c-0.5-0.9-1.1-1.8-1.9-3.1c-5.6,10.6-10.9,20.8-16.4,31c-5.1,9.4-10.3,18.8-15.3,28.3c-1.3,2.6-3,3.6-5.8,3.5
		c-10.5-0.1-20.9,0-31.4-0.1c-1.2,0-2.7,0.7-3.4-0.7c-0.7-1.3,0.6-2.3,1.2-3.3c15.4-25.3,30.8-50.7,46.3-75.9
		c1.7-2.7,1.8-4.5,0.1-7.3c-15.1-25.3-30.1-50.8-45.1-76.2c-2.3-3.9-2.1-4.3,2.4-4.3c10.8,0,21.7,0,32.5,0c2.4,0,4.6,0.2,5.7,2.7
		c8.3,18.6,19.4,35.6,28.7,53.7C129,155.9,130,158,131.4,160.7z"/>
	<path class="st0" d="M290.9,201.5c0,10.7-0.1,21.4,0.1,32.2c0,2.2-0.7,3.2-2.8,3.5c-6.2,0.9-12.4,1-18.6-0.3
		c-12.5-2.6-20.4-10.2-23.3-22.5c-3.6-15.5-2.7-30.2,11-41.1c9-7.1,19.5-9,30.7-7.6c2.4,0.3,3,1.3,3,3.6
		C290.8,180.1,290.9,190.8,290.9,201.5z"/>
</g>
</svg>
