<?xml version="1.0" encoding="utf-8"?>
<!-- Generator: Adobe Illustrator 26.2.1, SVG Export Plug-In . SVG Version: 6.00 Build 0)  -->
<svg version="1.1" id="Layer_1" xmlns="http://www.w3.org/2000/svg" xmlns:xlink="http://www.w3.org/1999/xlink" x="0px" y="0px"
	 viewBox="0 0 50 50" style="enable-background:new 0 0 50 50;" xml:space="preserve">
<style type="text/css">
	.st0{fill:#9080F2;}
</style>
<path class="st0" d="M9,4C6.2,4,4,6.2,4,9v32c0,2.8,2.2,5,5,5h32c2.8,0,5-2.2,5-5V9c0-2.8-2.2-5-5-5H9z M12,18h6.7
	c0.7,0,4.7,0,4.7,3.6c0,1.9-1.3,2.6-1.9,2.9c0.9,0.3,2.5,1.1,2.5,3.6c0,3.8-4.4,4-5,4h-7C12,32.1,12,18,12,18z M29,18h7v2h-7V18z
	 M15,20.4v3.3h3.2c0.4,0,1.9-0.2,1.9-1.7s-1.9-1.6-2.2-1.6C17.9,20.4,15,20.4,15,20.4z M32.7,21c3.9,0,5,3,5.1,3.8
	C38,25.5,38,26.1,38,27h-7.9c0,0.9,0.5,2.8,2.8,2.8c0.6,0,1.1-0.1,1.5-0.4c0.5-0.3,0.6-0.6,0.8-0.9h2.6c-0.5,1.1-1.1,2-2,2.6
	s-2,0.9-3.2,0.9c-0.8,0-1.6-0.1-2.3-0.4c-0.6-0.3-1.2-0.7-1.7-1.2c-0.5-0.4-0.8-1-1.1-1.7c-0.3-0.6-0.5-1.4-0.5-2.2S27.3,21,32.7,21
	z M32.7,23c-2.3,0-2.6,2.2-2.6,2.3h5C34.9,24.6,34.3,23,32.7,23z M15,25.7v3.9h3.4c0.3,0,2.3-0.1,2.3-1.9s-1.6-2-2.3-2H15z"/>
</svg>
