<?xml version="1.0" encoding="utf-8"?>
<!-- Generator: Adobe Illustrator 26.5.0, SVG Export Plug-In . SVG Version: 6.00 Build 0)  -->
<svg version="1.1" id="Layer_1" xmlns="http://www.w3.org/2000/svg" xmlns:xlink="http://www.w3.org/1999/xlink" x="0px" y="0px"
	 viewBox="0 0 20 19.6" style="enable-background:new 0 0 20 19.6;" xml:space="preserve">
<path d="M8.9,0.1C4.3,0.6,0.6,4.3,0.1,8.8c-0.6,5,2.5,9.3,6.9,10.7v-2.3c0,0-0.4,0.1-0.9,0.1c-1.4,0-2-1.2-2.1-1.9
	c-0.1-0.4-0.3-0.7-0.6-1C3.1,14.3,3,14.3,3,14.2C3,14,3.3,14,3.4,14c0.6,0,1.1,0.7,1.3,1c0.5,0.8,1.1,1,1.4,1c0.4,0,0.7-0.1,0.9-0.2
	c0.1-0.7,0.4-1.4,1-1.8c-2.3-0.5-4-1.8-4-4c0-1.1,0.5-2.2,1.2-3C5.1,6.8,5,6.3,5,5.6c0-0.4,0-1,0.3-1.6c0,0,1.4,0,2.8,1.3
	C8.6,5.1,9.3,5,10,5s1.4,0.1,2,0.3C13.3,4,14.8,4,14.8,4C15,4.6,15,5.2,15,5.6c0,0.8-0.1,1.2-0.2,1.4c0.7,0.8,1.2,1.8,1.2,3
	c0,2.2-1.7,3.5-4,4c0.6,0.5,1,1.4,1,2.3v3.3c4.1-1.3,7-5.1,7-9.5C20,4.1,14.9-0.6,8.9,0.1z"/>
</svg>
