<?xml version="1.0" encoding="utf-8"?>
<!-- Generator: Adobe Illustrator 26.5.0, SVG Export Plug-In . SVG Version: 6.00 Build 0)  -->
<svg version="1.1" id="Layer_1" xmlns="http://www.w3.org/2000/svg" xmlns:xlink="http://www.w3.org/1999/xlink" x="0px" y="0px"
	 viewBox="0 0 24 24" style="enable-background:new 0 0 24 24;" xml:space="preserve">
<path d="M7,0C3.1,0,0,3.1,0,7v10c0,3.9,3.1,7,7,7h10c3.9,0,7-3.1,7-7V7c0-3.9-3.1-7-7-7H7z M19,4c0.6,0,1,0.4,1,1s-0.4,1-1,1
	s-1-0.4-1-1S18.4,4,19,4z M12,6c3.3,0,6,2.7,6,6s-2.7,6-6,6s-6-2.7-6-6S8.7,6,12,6z M12,8c-2.2,0-4,1.8-4,4s1.8,4,4,4s4-1.8,4-4
	S14.2,8,12,8z"/>
</svg>
