<?xml version="1.0" encoding="utf-8"?>
<!-- Generator: Adobe Illustrator 26.2.1, SVG Export Plug-In . SVG Version: 6.00 Build 0)  -->
<svg version="1.1" id="Layer_1" xmlns="http://www.w3.org/2000/svg" xmlns:xlink="http://www.w3.org/1999/xlink" x="0px" y="0px"
	 viewBox="0 0 30 30" style="enable-background:new 0 0 30 30;" xml:space="preserve">
<style type="text/css">
	.st0{fill:#DFEBF2;}
</style>
<path class="st0" d="M15,3C8.4,3,3,8.4,3,15s5.4,12,12,12s12-5.4,12-12S21.6,3,15,3z M10.5,8.4c0.8,0,1.4,0.6,1.4,1.3
	S11.3,11,10.4,11C9.6,11,9,10.5,9,9.7S9.6,8.4,10.5,8.4z M12,20H9v-8h3V20z M22,20h-2.8v-4.4c0-1.2-0.8-1.5-1-1.5s-1.2,0.2-1.2,1.5
	c0,0.2,0,4.4,0,4.4H14v-8h2.9v1.1c0.4-0.7,1.1-1.1,2.5-1.1c1.4,0,2.5,1.1,2.5,3.6V20z"/>
</svg>
