<?xml version="1.0" encoding="utf-8"?>
<!-- Generator: Adobe Illustrator 26.5.0, SVG Export Plug-In . SVG Version: 6.00 Build 0)  -->
<svg version="1.1" id="Layer_1" xmlns="http://www.w3.org/2000/svg" xmlns:xlink="http://www.w3.org/1999/xlink" x="0px" y="0px"
	 viewBox="0 0 24 24" style="enable-background:new 0 0 24 24;" xml:space="preserve">
<path d="M12,0C5.4,0,0,5.4,0,12s5.4,12,12,12s12-5.4,12-12S18.6,0,12,0z M7.5,5.4c0.8,0,1.4,0.6,1.4,1.3S8.3,8,7.4,8
	C6.6,8,6,7.5,6,6.7S6.6,5.4,7.5,5.4z M9,17H6V9h3V17z M19,17h-2.8v-4.4c0-1.2-0.8-1.5-1-1.5s-1.2,0.2-1.2,1.5c0,0.2,0,4.4,0,4.4H11
	V9h2.9v1.1C14.3,9.5,15,9,16.5,9c1.4,0,2.5,1.1,2.5,3.6V17z"/>
</svg>
