<?xml version="1.0" encoding="UTF-8"?><svg xmlns="http://www.w3.org/2000/svg" viewBox="0 0 457.77 86"><defs><style>.d{fill:#bf8641;}</style></defs><g id="a"/><g id="b"><g id="c"><g><path class="d" d="M21.78,86c-9.58,0-14.11-3.83-14.11-13.61,0-4.74,.2-10.18,.2-12.8,0-6.35-.71-7.46-7.86-10.08v-13.01c7.16-2.62,7.86-3.73,7.86-10.08,0-2.62-.2-8.07-.2-12.8C7.66,3.83,12.2,0,21.78,0c3.53,0,9.68,0,13.41,.1l-.1,12.6c-4.23-.1-6.96-.1-8.87-.1-3.93,0-5.04,1.01-5.04,5.14,0,2.52,.2,7.46,.2,12.4,0,5.95-1.51,7.86-8.27,11.8v2.12c6.76,3.93,8.27,5.85,8.27,11.8,0,4.94-.2,9.88-.2,12.4,0,4.13,1.11,5.14,5.04,5.14,1.92,0,4.64,0,8.87-.1l.1,12.6c-3.73,.1-9.88,.1-13.41,.1Z"/><g><path class="d" d="M61.78,26.27v4.47c0,3.58,.06,7.63,.06,12.46,0,14.07-3.4,18.61-17.41,18.61s-17.41-3.88-17.41-19.08v-.66l9.06-.12v.95c-.12,8.89,1.43,10.85,8.35,10.85s8.35-1.97,8.35-10.85V26.27c0-2.92,0-5.49-.06-7.63h9.12c-.06,2.03-.06,4.53-.06,7.63Z"/><path class="d" d="M68.28,44.46v-1.79c0-13.3,4.53-17.23,17.06-17.23s17,3.94,17,17.23v1.79c0,13.3-4.53,17.23-17,17.23s-17.06-3.94-17.06-17.23Zm25.17-.72v-.36c0-8.29-1.91-10.14-8.11-10.14s-8.11,1.85-8.11,10.14v.36c0,8.23,1.91,10.14,8.11,10.14s8.11-1.91,8.11-10.14Z"/><path class="d" d="M107.29,44.46v-1.79c0-13.3,4.77-17.23,16.82-17.23s16.52,3.94,16.52,17.23v3.04h-24.39c.36,6.86,2.45,8.53,8.17,8.53,6.08,0,7.51-1.61,7.51-5.43l8.71,.24c0,9.18-3.76,12.64-16.28,12.64s-17.06-3.94-17.06-17.23Zm9.01-4.59h15.21c-.24-6.38-1.91-7.81-7.39-7.81s-7.39,1.43-7.81,7.81Z"/><path class="d" d="M156.07,69.63c-2.5,0-4.35-.12-6.8-.42l.12-7.28c2.21,.18,4.17,.24,5.78,.24,3.1,0,4.11-.78,5.31-4.47l.54-1.79h-6.38c-2.92-7.87-8.59-21.65-11.99-29.76h9.9l5.01,12.88c1.13,3.1,2.33,6.26,3.4,9.24h2.56c.83-2.98,1.73-6.2,2.62-9.36l3.7-12.76h9.48c-2.86,8.11-8.71,25.94-11.51,34.59-2.15,6.86-4.47,8.89-11.75,8.89Z"/><path class="d" d="M209.8,25.8v9.6h-10.08v-9.6h10.08Zm0,25.64v9.54h-10.08v-9.54h10.08Z"/><path class="d" d="M243.02,26.51c.54-3.16,.95-5.61,1.31-7.87h20.34c10.14,0,14.19,3.58,12.52,13-1.19,6.8-4.17,10.67-11.75,11.93,.95,2.15,2.03,4.65,3.1,7.28,1.37,3.22,2.92,6.68,4.59,10.14h-6.56c-1.01-2.56-2.15-5.25-3.28-7.87l-3.64-8.65h-14.19l-1.61,8.95c-.54,3.04-.89,5.37-1.25,7.57h-5.73c.48-2.21,.83-4.53,1.43-7.63l4.71-26.84Zm6.08-2.86l-2.74,15.74h15.68c5.73,0,8.35-2.33,9.36-8.05,1.01-5.78-.89-7.69-6.62-7.69h-15.68Z"/><path class="d" d="M280.71,44.58l.3-1.79c2.33-13.18,7.04-17.12,18.37-17.12s15.27,3.94,12.94,17.12c-.18,1.01-.36,1.97-.54,3.04h-25.82c-1.13,8.53,1.19,10.91,8.95,10.91s10.02-2.21,10.85-7.04l5.31,.24c-1.49,8.29-4.65,11.75-16.4,11.75s-16.28-3.94-13.96-17.12Zm6.14-3.52h20.04c1.25-8.29-.72-10.56-7.87-10.56s-10.32,2.21-12.17,10.56Z"/><path class="d" d="M324.18,23.95c.54-3.1,.83-4.89,1.25-7.57h5.55c-.48,2.44-1.67,9.12-2.74,15.09,2.92-3.88,6.98-5.78,12.34-5.78,10.32,0,14.67,3.94,12.34,17.12l-.3,1.79c-2.33,13.18-6.86,17.12-17.89,17.12-5.9,0-9.6-2.27-11.03-6.98l-1.19,6.26h-4.95c.48-2.27,.89-4.59,1.43-7.75l5.19-29.28Zm9.9,32.8c8.29,0,11.39-2.5,13.18-12.76l.12-.6c1.79-10.26-.42-12.76-8.41-12.76s-11.09,2.5-12.88,12.82l-.06,.48c-1.85,10.38,.42,12.82,8.05,12.82Z"/><path class="d" d="M363.06,33.85c.54-2.8,.89-5.07,1.25-7.45h4.95l-.83,5.43c3.04-4.59,7.28-6.14,12.52-6.14,8.53,0,12.76,3.22,11.09,12.52-.3,1.85-.78,4.29-1.73,9.66l-.95,5.43c-.48,2.5-.89,4.89-1.31,7.69h-5.49c.54-2.62,.83-4.29,1.43-7.69l2.03-11.51c1.61-9.12-.3-11.15-7.28-11.15s-10.08,2.03-11.93,12.46l-1.79,10.2c-.54,3.04-.95,5.25-1.31,7.69h-5.49c.48-2.5,.89-4.83,1.43-7.69l3.4-19.44Z"/><path class="d" d="M399.32,44.58l.3-1.79c2.33-13.18,7.04-17.12,18.37-17.12s15.27,3.94,12.94,17.12c-.18,1.01-.36,1.97-.54,3.04h-25.82c-1.13,8.53,1.19,10.91,8.95,10.91s10.02-2.21,10.85-7.04l5.31,.24c-1.49,8.29-4.65,11.75-16.4,11.75s-16.28-3.94-13.96-17.12Zm6.14-3.52h20.04c1.25-8.29-.72-10.56-7.87-10.56s-10.32,2.21-12.17,10.56Z"/></g><path class="d" d="M446.73,77.5V8.5h-8.37c-4.61,0-8.01,0-12.86,.1V0h32.27c-.12,6.17-.12,10.52-.12,18.41v49.07c0,7.99,0,11.33,.12,18.52h-32.27v-8.6c4.85,.1,8.25,.1,12.86,.1h8.37Z"/></g></g></g></svg>