<?xml version="1.0" encoding="UTF-8"?><svg xmlns="http://www.w3.org/2000/svg" viewBox="0 0 172.1 70"><defs><style>.d{fill:#9080f2;}</style></defs><g id="a"/><g id="b"><g id="c"><g><path class="d" d="M17.47,70c-7.68,0-11.32-3.07-11.32-10.92,0-3.8,.16-8.17,.16-10.27,0-5.1-.57-5.99-6.31-8.09v-10.44c5.74-2.1,6.31-2.99,6.31-8.09,0-2.1-.16-6.47-.16-10.27C6.15,4.07,9.79,1,17.47,1c2.83,0,7.77,0,10.76,.08l-.08,10.11c-3.4-.08-5.58-.08-7.12-.08-3.15,0-4.04,.81-4.04,4.13,0,2.02,.16,5.99,.16,9.95,0,4.77-1.21,6.31-6.63,9.46v1.7c5.42,3.15,6.63,4.69,6.63,9.46,0,3.96-.16,7.93-.16,9.95,0,3.32,.89,4.13,4.04,4.13,1.54,0,3.72,0,7.12-.08l.08,10.11c-2.99,.08-7.93,.08-10.76,.08Z"/><g><path class="d" d="M64.8,21.42v4.51c0,3.61,.06,7.7,.06,12.58,0,14.2-3.43,18.78-17.57,18.78s-17.57-3.91-17.57-19.26v-.66l9.15-.12v.96c-.12,8.97,1.44,10.95,8.43,10.95s8.43-1.99,8.43-10.95V21.42c0-2.95,0-5.54-.06-7.7h9.21c-.06,2.05-.06,4.57-.06,7.7Z"/><path class="d" d="M90.24,20.94v9.69h-10.17v-9.69h10.17Zm0,25.88v9.63h-10.17v-9.63h10.17Z"/><path class="d" d="M108.7,21.66c.54-3.19,.96-5.66,1.32-7.94h20.52c10.23,0,14.32,3.61,12.64,13.12-1.2,6.86-4.21,10.77-11.86,12.04,.96,2.17,2.05,4.69,3.13,7.34,1.38,3.25,2.95,6.74,4.63,10.23h-6.62c-1.02-2.59-2.17-5.3-3.31-7.94l-3.67-8.73h-14.32l-1.63,9.03c-.54,3.07-.9,5.42-1.26,7.64h-5.78c.48-2.23,.84-4.57,1.44-7.7l4.75-27.08Zm6.14-2.89l-2.77,15.89h15.83c5.78,0,8.43-2.35,9.45-8.13,1.02-5.84-.9-7.76-6.68-7.76h-15.83Z"/></g><path class="d" d="M163.24,62.18V6.82h-6.72c-3.7,0-6.42,0-10.32,.08V0h25.89c-.1,4.95-.1,8.44-.1,14.77V54.14c0,6.41,0,9.09,.1,14.86h-25.89v-6.9c3.89,.08,6.62,.08,10.32,.08h6.72Z"/></g></g></g></svg>